<svg version="1" xmlns="http://www.w3.org/2000/svg" width="1280" height="1280" viewBox="0 0 960.000000 960.000000"><path d="M317.6 175.7c-.1.2-6.5.7-22.6 1.9-3.6.2-8.7.7-11.5.9-2.7.3-7.9.7-11.5 1-6.4.4-15.2 1.2-22 2-1.9.2-6.2.7-9.5 1-3.3.3-8.2.8-11 1-2.7.3-6.8.7-9 .9-10.5 1-16.2 1.7-18 2-1.1.2-4.9.7-8.5 1.1-3.6.4-7.3.9-8.2 1-.9.2-4.4.6-7.7 1-3.3.3-6.8.8-7.9 1-1 .2-4.3.6-7.2 1-2.9.4-6.1.8-7.1 1-.9.2-3.9.6-6.6 1-2.6.4-8.4 1.3-12.8 2.1-7.9 1.3-10.1 1.7-18 3-2.2.3-4.4.7-5 .9-.5.1-2.8.5-5 1-2.2.4-4.9 1-6 1.2-1.1.2-3.1.6-4.5.9-2 .4-14.3 3.3-21.2 5-1 .2-2.6.6-3.5.8-6.7 1.6-27.2 8.3-34.3 11.3-18.7 7.7-29.3 15.4-35.5 25.9C.9 249.9.6 251.5.6 258c.1 8.8 2.3 14.7 8 21 3.6 4 12.7 11 13 10 .1-.3 1 .2 2 1.1 2.3 2 13 7 24.7 11.5 10.1 3.9 41.2 13.8 49.7 15.8.8.2 6.7 1.8 13 3.6 6.3 1.7 16.7 4.5 23 6.1 19.8 5.2 49.4 13 51 13.3 18.6 4.5 68.5 19.2 76.5 22.6 1.1.5 4.7 1.8 8 3 16.3 5.8 34.6 16.6 37.6 22.1 2.8 5.4-14.6 14.2-52.1 26.4-2.5.8-16 4.8-30 9-50.9 15.1-76 24.4-92.5 34.3-3.3 2-6.6 4.2-7.3 4.9-.7.7-1.7 1.3-2 1.3-.4 0-3.1 2.3-6 5.1-25.6 24.8-7.4 56.7 44 76.5 12 4.7 36.3 12.1 48.9 14.9.8.2 4.4 1 8 1.9 3.5.9 7.3 1.8 8.4 2 1.1.3 5.8 1.4 10.5 2.5s9.6 2.2 11 2.5c1.4.2 8.8 1.9 16.5 3.6 7.7 1.8 17.8 4 22.5 5 4.7 1 15.9 3.7 25 6 9.1 2.2 17.2 4.3 18 4.5 17.3 4 60.3 18.3 73.8 24.6 2.4 1.1 6.2 2.7 8.5 3.6 2.3.9 4.7 1.9 5.2 2.3.6.4 5.5 3.1 11 6 5.5 2.8 10.7 5.8 11.6 6.6.8.8 2 1.4 2.5 1.4 1 0 15.5 10.3 22.5 16 6.5 5.2 19.8 18.9 24.5 25.1 2.2 3 7.2 9.7 11.1 14.9 14.4 19.3 34.3 34.9 63.3 49.4 16.1 8.1 43 18.6 59 23.1 22.5 6.2 39.7 10.3 55 13.1 1.9.4 4.4.8 5.5 1.1 1.1.2 3.6.6 5.5.9 1.9.3 6 .9 9 1.4 3 .5 7.9 1.2 10.9 1.5 3 .4 6.1.8 7 1 .9.1 5 .6 9.1 1 4.1.3 9.3.8 11.5 1 15.7 1.6 24.5 1.9 51.5 1.9 31.2 0 41.2-.5 60-2.9 2.5-.4 5.9-.8 7.5-1 8.7-1.2 15-2.3 24.5-4.6 4.7-1.1 9.2-2.2 10.1-2.4 8.7-1.8 32.1-11.1 37.1-14.6 1.4-1 3-1.9 3.5-1.9 1.3-.1 8.4-5.7 14.1-11.3 17.2-16.7 19.5-39.8 6.5-63.9-1.5-2.8-3.3-5.9-4-6.7-.7-.9-3.2-4.3-5.7-7.6-7.9-10.7-24.9-26.8-36.6-34.8-24.7-16.8-44.5-27.2-74.5-39.1-6.6-2.7-12.9-5.2-14-5.7-5.3-2.2-37.7-13-45-14.9-1.6-.5-7.7-2.2-13.5-4-5.8-1.7-11.6-3.3-13-3.6-1.4-.2-3.6-.9-5-1.4-1.4-.5-3.6-1.2-5-1.4-1.4-.3-4.3-1-6.5-1.6-2.2-.6-4.7-1.2-5.5-1.4-.8-.2-3.5-.9-6-1.6-4.9-1.3-7.1-1.8-11-2.6-1.4-.2-3.1-.7-3.9-1-.8-.2-3-.7-5-1-2-.3-4.4-1-5.3-1.5-.9-.5-2.1-.8-2.5-.7-.4.1-3-.3-5.8-1-4.8-1.2-7.1-1.7-12.5-2.8-1.4-.3-4.5-1-7-1.5-6.9-1.6-9.3-2.1-11.5-2.4-1.1-.2-2-.4-2-.5 0-.1-1.1-.3-2.5-.6-1.4-.2-4.9-.9-7.7-1.5-2.9-.6-5.5-1-5.8-1-.2 0-1.9-.4-3.6-.9-1.8-.5-5.1-1.2-7.3-1.6-2.3-.3-6.8-1.2-10.1-1.9-3.3-.8-8-1.7-10.5-2-2.4-.4-4.8-.9-5.2-1.1-.4-.3-2-.7-3.5-.9-6.2-1-10.1-1.7-16.1-3.1-3.4-.7-7.7-1.6-9.5-1.9-1.7-.3-4.5-.8-6.2-1.2-1.6-.4-3.3-.6-3.7-.5-.4.1-1.8-.2-3.1-.7-1.3-.5-4.1-1.2-6.3-1.5-2.1-.4-7.3-1.3-11.4-2.2-4.1-.9-8.4-1.7-9.5-2-1.1-.2-3.1-.6-4.5-.9-1.4-.3-3.4-.7-4.5-.9-1.1-.3-4.2-1-7-1.6-2.7-.6-5.9-1.3-7-1.6-10.9-2.1-40.1-10.2-47-13-15.7-6.5-21.6-10.3-23.3-15.4-1.7-4.8 1.7-8.7 12.3-14 7.3-3.6 23.4-9.7 28-10.6 2.1-.4 48.3-13.6 55.6-15.9 12.3-3.8 27.9-10.3 34.4-14.2 12.2-7.3 19.5-17.6 19.5-27.6 0-19.8-19.2-36.8-58.5-51.6-3.3-1.3-8.2-3.1-10.9-4.2-2.7-1-5.5-1.9-6.2-1.9-.8 0-2.2-.4-3.2-1-2.5-1.4-18.5-6.1-44.2-13.1-1.9-.5-4.6-1.2-6-1.5-1.4-.3-5.9-1.4-10-2.4-10.1-2.6-57.6-13.3-64-14.4-1.4-.3-5.9-1.2-10-2.1-4.1-.9-8.6-1.8-10-2.1-1.4-.2-15.8-3.1-32-6.4-16.2-3.3-30.6-6.2-32-6.4-1.4-.3-4.5-.9-7-1.5-2.5-.5-6.1-1.3-8-1.6-1.9-.3-5.3-1-7.5-1.5s-5.3-1.1-7-1.4c-1.6-.3-8.4-1.7-15-3.1-12.3-2.6-20.5-4.3-24-5-1.1-.3-10.3-2.5-20.5-5.1-10.2-2.5-18.9-4.7-19.5-4.8-1.9-.4-19-5.7-20.5-6.3-.8-.4-1.7-.7-2-.8-2.4-.8-7.4-3-11.7-5.2-3.9-1.9-5.7-3.6-7.2-6.6l-2-4.1 2.2-3.9c2.7-4.8 7.1-8.4 16.8-13.6 7.5-4.1 27.2-12.1 29.6-12.1.7 0 2.1-.4 3.1-1 3-1.7 40.5-11.4 52.2-13.5 1.4-.2 6.8-1.3 12-2.4 5.2-1.1 11.1-2.2 13-2.5 1.9-.3 4.6-.8 6-1.1 1.3-.2 4.2-.7 6.5-1 5.7-.9 9.6-1.5 12.5-2 1.4-.2 4.5-.7 7-1 2.5-.3 5.2-.8 6-1 .8-.2 3.8-.7 6.5-1 2.8-.3 6.4-.7 8.2-1 8.7-1.1 11.8-9 5.7-14.3-2.2-1.9-3.5-2.2-9.1-2-3.5.2-6.5.4-6.7.5z"/></svg>